<svg xmlns="http://www.w3.org/2000/svg" viewBox="0 0 64 64"><path fill="#231f20" d="M61.355,54.284l-7.071-7.071a4.978,4.978,0,0,0-4.223-1.4L44.948,40.7A24.04,24.04,0,1,0,40.7,44.948l5.113,5.113a4.978,4.978,0,0,0,1.4,4.223l7.071,7.071a5,5,0,0,0,7.071-7.071ZM4,26A22,22,0,1,1,26,48,22.025,22.025,0,0,1,4,26ZM42.238,43.654q.736-.68,1.416-1.417l4.339,4.34a4.974,4.974,0,0,0-1.416,1.416Zm17.7,16.287a3,3,0,0,1-4.243,0L48.627,52.87a3,3,0,0,1,4.243-4.243L59.941,55.7A3.005,3.005,0,0,1,59.941,59.941Z"/><path fill="#231f20" d="M26,6A20,20,0,1,0,46,26,20.023,20.023,0,0,0,26,6Zm0,38A18,18,0,1,1,44,26,18.021,18.021,0,0,1,26,44Z"/><path fill="#231f20" d="M21.364 19.636a1 1 0 0 0-1.414 0l-5.657 5.657a1 1 0 0 0 0 1.414l5.657 5.657a1 1 0 0 0 1.414-1.414L16.414 26l4.95-4.95A1 1 0 0 0 21.364 19.636zM32.05 19.636a1 1 0 1 0-1.414 1.414L35.586 26l-4.95 4.95a1 1 0 1 0 1.414 1.414l5.657-5.657a1 1 0 0 0 0-1.414zM27.645 16.185a.992.992 0 0 0-1.13.851l-2.5 17.825a1 1 0 0 0 .851 1.129A.951.951 0 0 0 25 36a1 1 0 0 0 .989-.861L28.5 17.314A1 1 0 0 0 27.645 16.185z"/></svg>