<svg width="0" height="0" class="hidden">
  <symbol xmlns="http://www.w3.org/2000/svg" viewBox="0 0 64 64" id="seo">
    <path fill="#231f20" d="M61.355,54.284l-7.071-7.071a4.978,4.978,0,0,0-4.223-1.4L44.948,40.7A24.04,24.04,0,1,0,40.7,44.948l5.113,5.113a4.978,4.978,0,0,0,1.4,4.223l7.071,7.071a5,5,0,0,0,7.071-7.071ZM4,26A22,22,0,1,1,26,48,22.025,22.025,0,0,1,4,26ZM42.238,43.654q.736-.68,1.416-1.417l4.339,4.34a4.974,4.974,0,0,0-1.416,1.416Zm17.7,16.287a3,3,0,0,1-4.243,0L48.627,52.87a3,3,0,0,1,4.243-4.243L59.941,55.7A3.005,3.005,0,0,1,59.941,59.941Z"></path>
    <path fill="#231f20" d="M26,6A20,20,0,1,0,46,26,20.023,20.023,0,0,0,26,6Zm0,38A18,18,0,1,1,44,26,18.021,18.021,0,0,1,26,44Z"></path>
    <path fill="#231f20" d="M21.364 19.636a1 1 0 0 0-1.414 0l-5.657 5.657a1 1 0 0 0 0 1.414l5.657 5.657a1 1 0 0 0 1.414-1.414L16.414 26l4.95-4.95A1 1 0 0 0 21.364 19.636zM32.05 19.636a1 1 0 1 0-1.414 1.414L35.586 26l-4.95 4.95a1 1 0 1 0 1.414 1.414l5.657-5.657a1 1 0 0 0 0-1.414zM27.645 16.185a.992.992 0 0 0-1.13.851l-2.5 17.825a1 1 0 0 0 .851 1.129A.951.951 0 0 0 25 36a1 1 0 0 0 .989-.861L28.5 17.314A1 1 0 0 0 27.645 16.185z"></path>
  </symbol>
  <symbol version="1.1" id="wp" xmlnsDc="http://purl.org/dc/elements/1.1/" xmlnsCc="http://creativecommons.org/ns#" xmlnsRdf="http://www.w3.org/1999/02/22-rdf-syntax-ns#" xmlnsSvg="http://www.w3.org/2000/svg" xmlnsSodipodi="http://sodipodi.sourceforge.net/DTD/sodipodi-0.dtd" xmlnsInkscape="http://www.inkscape.org/namespaces/inkscape" sodipodiDocname="wordpress.svg" inkscapeVersion="0.48.4 r9939" xmlns="http://www.w3.org/2000/svg" xmlns:xlink="http://www.w3.org/1999/xlink" x="0px" y="0px" enable-background="new 0 0 1200 1200" xml:space="preserve" viewBox="0 0 1200 1200">
    <path id="path26266" inkscapeConnectorCurvature="0" d="M599.314,1200C264.241,1193.561,2.343,918.889,0,599.314
	C6.515,264.491,279.729,2.343,599.314,0C934.157,6.694,1197.654,279.298,1200,599.314
	C1193.381,934.406,919.318,1197.654,599.314,1200z M599.314,42.514C288.196,48.64,43.307,302.232,41.143,599.314
	c6.051,311.365,261.102,556.007,558.171,558.171c311.365-6.053,556.007-261.103,558.172-558.171
	C1151.613,287.967,895.954,44.676,599.314,42.514L599.314,42.514z M455.314,1090.285l153.6-441.6l160.457,432
	C661.269,1116.874,559.068,1119.067,455.314,1090.285L455.314,1090.285z M337.371,309.943
	c-56.23,7.644-110.916,10.369-164.571,8.229C274.677,172.521,437.796,90.579,599.314,89.143c132.109,2.5,255.27,52.438,345.6,134.4
	c-41.893-3.097-66.977,15.276-85.028,46.628c-26.234,80.939,29.201,140.853,60.344,201.601
	c29.443,55.505,27.108,118.618,10.971,172.8l-76.8,261.943L669.258,356.571c19.291-1.795,38.708-2.373,56.229-5.486
	c20.736-4.617,25.286-23.914,10.971-35.657c-4.57-3.656-9.6-5.484-15.086-5.484l-111.085,8.229h-84.343
	c-23.813,1.406-91.053-21.597-96.688,9.601c-2.911,12.017,6.06,21.436,16.457,23.313c18.346,2.377,39.365,5.076,56.229,6.857
	l80.914,216.686L470.4,906.515L283.886,356.571c19.736-1.714,39.733-2.312,57.6-5.486c14.63-1.833,21.028-9.146,19.2-21.943
	C358.093,317.765,347.952,310.078,337.371,309.943L337.371,309.943z M131.657,394.972l245.486,663.771
	c-88.577-43.659-158.606-107.864-208.458-184.458C77.49,728.754,67.897,544.121,131.657,394.972L131.657,394.972z M1090.972,735.771
	c-40.303,131.608-122.616,240.613-236.57,306.515c5.484-14.629,14.171-39.314,26.057-74.058l142.629-414.172
	c13.714-40.229,23.314-85.028,28.8-134.399c1.853-20.199,1.914-40.564-1.371-58.972
	C1108.954,486.728,1125.532,611.577,1090.972,735.771L1090.972,735.771z"></path>
  </symbol>
  <symbol version="1.1" id="responsive" xmlns="http://www.w3.org/2000/svg" xmlns:xlink="http://www.w3.org/1999/xlink" x="0px" y="0px" xml:space="preserve" viewBox="0 0 512 512">
    <g>
      <g>
        <circle cx="256" cy="389.381" r="8.17"></circle>
      </g>
    </g>
    <g>
      <g>
        <path d="M471.149,54.468h-84.426c-4.512,0-8.17,3.658-8.17,8.17s3.658,8.17,8.17,8.17h84.426
			c13.516,0,24.511,10.995,24.511,24.511v253.277H16.34V95.319c0-13.516,10.995-24.511,24.511-24.511h84.426
			c4.512,0,8.17-3.658,8.17-8.17s-3.658-8.17-8.17-8.17H40.851C18.325,54.468,0,72.793,0,95.319v294.128
			c0,22.526,18.325,40.851,40.851,40.851h256v40.851c0,9.19,3.051,17.678,8.192,24.511h-98.086
			c5.141-6.832,8.192-15.321,8.192-24.511v-16.34c0-4.512-3.658-8.17-8.17-8.17c-4.512,0-8.17,3.658-8.17,8.17v16.34
			c0,13.516-10.995,24.511-24.511,24.511H98.041c-4.512,0-8.17,3.658-8.17,8.17s3.658,8.17,8.17,8.17h315.915
			c4.512,0,8.17-3.658,8.17-8.17s-3.658-8.17-8.17-8.17h-76.254c-13.516,0-24.511-10.995-24.511-24.511v-40.851h157.957
			c22.526,0,40.851-18.325,40.851-40.851V95.319C512,72.793,493.675,54.468,471.149,54.468z M495.66,389.447
			c0,13.516-10.995,24.511-24.511,24.511H40.851c-13.516,0-24.511-10.995-24.511-24.511v-24.511H495.66V389.447z"></path>
      </g>
    </g>
    <g>
      <g>
        <path d="M321.362,0H190.638c-22.526,0-40.851,18.325-40.851,40.851v250.553c0,22.526,18.325,40.851,40.851,40.851h130.723
			c22.526,0,40.851-18.325,40.851-40.851V40.851C362.213,18.325,343.888,0,321.362,0z M345.872,291.404
			c0,13.516-10.995,24.511-24.511,24.511H190.638c-13.516,0-24.511-10.995-24.511-24.511v-13.617h179.745V291.404z M345.872,54.468
			H223.319c-4.512,0-8.17,3.658-8.17,8.17s3.658,8.17,8.17,8.17h122.553v190.638H166.128V70.809h24.511
			c4.512,0,8.17-3.658,8.17-8.17s-3.658-8.17-8.17-8.17h-24.511V40.851c0-13.516,10.995-24.511,24.511-24.511h130.723
			c13.516,0,24.511,10.995,24.511,24.511V54.468z"></path>
      </g>
    </g>
    <g></g>
    <g></g>
    <g></g>
    <g></g>
    <g></g>
    <g></g>
    <g></g>
    <g></g>
    <g></g>
    <g></g>
    <g></g>
    <g></g>
    <g></g>
    <g></g>
    <g></g>
  </symbol>
</svg>