<svg width="0" height="0" class="hidden">
  <symbol id="github" version="1.1" xml:space="preserve" xmlns="http://www.w3.org/2000/svg" xmlns:xlink="http://www.w3.org/1999/xlink" viewBox="0 0 512 512">
    <g>
      <path d="M256,32C132.3,32,32,134.8,32,261.7c0,101.5,64.2,187.5,153.2,217.9c11.2,2.1,15.3-5,15.3-11.1   c0-5.5-0.2-19.9-0.3-39.1c-62.3,13.9-75.5-30.8-75.5-30.8c-10.2-26.5-24.9-33.6-24.9-33.6c-20.3-14.3,1.5-14,1.5-14   c22.5,1.6,34.3,23.7,34.3,23.7c20,35.1,52.4,25,65.2,19.1c2-14.8,7.8-25,14.2-30.7c-49.7-5.8-102-25.5-102-113.5   c0-25.1,8.7-45.6,23-61.6c-2.3-5.8-10-29.2,2.2-60.8c0,0,18.8-6.2,61.6,23.5c17.9-5.1,37-7.6,56.1-7.7c19,0.1,38.2,2.6,56.1,7.7   c42.8-29.7,61.5-23.5,61.5-23.5c12.2,31.6,4.5,55,2.2,60.8c14.3,16.1,23,36.6,23,61.6c0,88.2-52.4,107.6-102.3,113.3   c8,7.1,15.2,21.1,15.2,42.5c0,30.7-0.3,55.5-0.3,63c0,6.1,4,13.3,15.4,11C415.9,449.1,480,363.1,480,261.7   C480,134.8,379.7,32,256,32z"></path>
    </g>
  </symbol>
  <symbol id="instagram" xmlns="http://www.w3.org/2000/svg" viewBox="0 0 24 24">
    <title></title>
    <path d="M15.5,3h-7A5.5,5.5,0,0,0,3,8.5v7A5.5,5.5,0,0,0,8.5,21h7A5.5,5.5,0,0,0,21,15.5v-7A5.5,5.5,0,0,0,15.5,3Zm4,12.5a4.00454,4.00454,0,0,1-4,4h-7a4.00454,4.00454,0,0,1-4-4v-7a4.0045,4.0045,0,0,1,4-4h7a4.0045,4.0045,0,0,1,4,4Z"></path>
    <path d="M12,7.5A4.5,4.5,0,1,0,16.5,12,4.5,4.5,0,0,0,12,7.5ZM12,15a3,3,0,1,1,3-3A3.0034,3.0034,0,0,1,12,15Z"></path>
    <circle cx="16.70001" cy="7.29999" r="1"></circle>
  </symbol>
  <symbol id="linkedin" version="1.1" xml:space="preserve" xmlns="http://www.w3.org/2000/svg" xmlns:xlink="http://www.w3.org/1999/xlink" viewBox="0 0 512 512">
    <g>
      <path d="M417.2,64H96.8C79.3,64,64,76.6,64,93.9v321.1c0,17.4,15.3,32.9,32.8,32.9h320.3c17.6,0,30.8-15.6,30.8-32.9V93.9   C448,76.6,434.7,64,417.2,64z M183,384h-55V213h55V384z M157.4,187H157c-17.6,0-29-13.1-29-29.5c0-16.7,11.7-29.5,29.7-29.5   c18,0,29,12.7,29.4,29.5C187.1,173.9,175.7,187,157.4,187z M384,384h-55v-93.5c0-22.4-8-37.7-27.9-37.7   c-15.2,0-24.2,10.3-28.2,20.3c-1.5,3.6-1.9,8.5-1.9,13.5V384h-55V213h55v23.8c8-11.4,20.5-27.8,49.6-27.8   c36.1,0,63.4,23.8,63.4,75.1V384z"></path>
    </g>
  </symbol>
  <symbol enable-background="new 0 0 56.693 56.693" id="twitter" version="1.1" xml:space="preserve" xmlns="http://www.w3.org/2000/svg" xmlns:xlink="http://www.w3.org/1999/xlink" viewBox="0 0 56.693 56.693">
    <path d="M52.837,15.065c-1.811,0.805-3.76,1.348-5.805,1.591c2.088-1.25,3.689-3.23,4.444-5.592c-1.953,1.159-4.115,2-6.418,2.454  c-1.843-1.964-4.47-3.192-7.377-3.192c-5.581,0-10.106,4.525-10.106,10.107c0,0.791,0.089,1.562,0.262,2.303  c-8.4-0.422-15.848-4.445-20.833-10.56c-0.87,1.492-1.368,3.228-1.368,5.082c0,3.506,1.784,6.6,4.496,8.412  c-1.656-0.053-3.215-0.508-4.578-1.265c-0.001,0.042-0.001,0.085-0.001,0.128c0,4.896,3.484,8.98,8.108,9.91  c-0.848,0.23-1.741,0.354-2.663,0.354c-0.652,0-1.285-0.063-1.902-0.182c1.287,4.015,5.019,6.938,9.441,7.019  c-3.459,2.711-7.816,4.327-12.552,4.327c-0.815,0-1.62-0.048-2.411-0.142c4.474,2.869,9.786,4.541,15.493,4.541  c18.591,0,28.756-15.4,28.756-28.756c0-0.438-0.009-0.875-0.028-1.309C49.769,18.873,51.483,17.092,52.837,15.065z"></path>
  </symbol>
  <symbol baseProfile="tiny" id="facebook" version="1.2" xml:space="preserve" xmlns="http://www.w3.org/2000/svg" xmlns:xlink="http://www.w3.org/1999/xlink" viewBox="0 0 24 24">
    <g>
      <path d="M13,10h3v3h-3v7h-3v-7H7v-3h3V8.745c0-1.189,0.374-2.691,1.118-3.512C11.862,4.41,12.791,4,13.904,4H16v3h-2.1   C13.402,7,13,7.402,13,7.899V10z"></path>
    </g>
  </symbol>
</svg>